<svg width="1600" height="760" viewBox="0 0 1600 760" fill="none" xmlns="http://www.w3.org/2000/svg" font-family="Inter, 'Segoe UI', system-ui, sans-serif">
  <defs>
    <linearGradient id="navGlow" x1="0" y1="0" x2="0" y2="1">
      <stop offset="0" stop-color="#22d3ee" stop-opacity="0.08"/>
      <stop offset="1" stop-color="#22d3ee" stop-opacity="0"/>
    </linearGradient>
  </defs>

  <rect width="1600" height="760" fill="#020617"/>

  <!-- ===== LEFT NAV ===== -->
  <rect x="0" y="0" width="280" height="760" fill="#070b16"/>
  <line x1="280" y1="0" x2="280" y2="760" stroke="#ffffff" stroke-opacity="0.10"/>
  <rect x="0" y="0" width="280" height="120" fill="url(#navGlow)"/>
  <circle cx="34" cy="40" r="5" fill="#67e8f9"/>
  <text x="48" y="44" fill="#a5f3fc" font-size="11" font-weight="700" letter-spacing="2">ONBOARD ALERT</text>
  <text x="28" y="78" fill="#ffffff" font-size="20" font-weight="600">Admin Paneli</text>
  <line x1="0" y1="104" x2="280" y2="104" stroke="#ffffff" stroke-opacity="0.10"/>

  <!-- nav items -->
  <g>
    <rect x="16" y="124" width="248" height="48" rx="12" fill="#67e8f9" fill-opacity="0.10" stroke="#67e8f9" stroke-opacity="0.55"/>
    <text x="40" y="153" fill="#ffffff" font-size="14" font-weight="600">Haberler</text>

    <rect x="16" y="180" width="248" height="48" rx="12" fill="#ffffff" fill-opacity="0.035" stroke="#ffffff" stroke-opacity="0.10"/>
    <text x="40" y="209" fill="#cbd5e1" font-size="14" font-weight="600">Konum Bekleyenler</text>
    <rect x="224" y="194" width="28" height="20" rx="10" fill="#fcd34d" fill-opacity="0.14" stroke="#fcd34d" stroke-opacity="0.45"/>
    <text x="238" y="208" fill="#fde68a" font-size="11" font-weight="700" text-anchor="middle">2</text>

    <rect x="16" y="236" width="248" height="48" rx="12" fill="#ffffff" fill-opacity="0.035" stroke="#ffffff" stroke-opacity="0.10"/>
    <text x="40" y="265" fill="#cbd5e1" font-size="14" font-weight="600">Yeni Ekle</text>

    <rect x="16" y="292" width="248" height="48" rx="12" fill="#ffffff" fill-opacity="0.035" stroke="#ffffff" stroke-opacity="0.10"/>
    <text x="40" y="321" fill="#cbd5e1" font-size="14" font-weight="600">Ayarlar</text>
  </g>

  <!-- ===== MAIN HEADER ===== -->
  <line x1="280" y1="84" x2="1600" y2="84" stroke="#ffffff" stroke-opacity="0.10"/>
  <text x="320" y="40" fill="#64748b" font-size="11" font-weight="600" letter-spacing="2">MANUEL VERİ YÖNETİMİ</text>
  <text x="320" y="70" fill="#ffffff" font-size="24" font-weight="600">Haber Yönetimi</text>
  <rect x="1420" y="32" width="148" height="40" rx="12" fill="#22d3ee" fill-opacity="0.10" stroke="#67e8f9" stroke-opacity="0.40"/>
  <text x="1494" y="57" fill="#a5f3fc" font-size="13" font-weight="600" text-anchor="middle">Haritayı Aç</text>

  <!-- list header -->
  <text x="320" y="138" fill="#ffffff" font-size="18" font-weight="600">Haber Listesi</text>
  <text x="320" y="162" fill="#94a3b8" font-size="13">Tüm manuel haber kayıtlarını buradan yönetebilirsin.</text>
  <rect x="1300" y="124" width="110" height="40" rx="10" fill="#ffffff" fill-opacity="0.045" stroke="#ffffff" stroke-opacity="0.10"/>
  <text x="1355" y="149" fill="#e2e8f0" font-size="13" font-weight="600" text-anchor="middle">Sıfırla</text>
  <rect x="1420" y="124" width="148" height="40" rx="10" fill="#22d3ee" fill-opacity="0.10" stroke="#67e8f9" stroke-opacity="0.40"/>
  <text x="1494" y="149" fill="#a5f3fc" font-size="13" font-weight="600" text-anchor="middle">+  Yeni Haber</text>

  <!-- ===== TABLE ===== -->
  <rect x="320" y="190" width="1248" height="520" rx="16" fill="#ffffff" fill-opacity="0.035" stroke="#ffffff" stroke-opacity="0.10"/>
  <!-- table head -->
  <rect x="320" y="190" width="1248" height="48" fill="#ffffff" fill-opacity="0.04"/>
  <text x="344" y="220" fill="#94a3b8" font-size="11" font-weight="700" letter-spacing="1">BAŞLIK</text>
  <text x="740" y="220" fill="#94a3b8" font-size="11" font-weight="700" letter-spacing="1">TARİH</text>
  <text x="920" y="220" fill="#94a3b8" font-size="11" font-weight="700" letter-spacing="1">ŞİDDET</text>
  <text x="1060" y="220" fill="#94a3b8" font-size="11" font-weight="700" letter-spacing="1">KATEGORİ</text>
  <text x="1230" y="220" fill="#94a3b8" font-size="11" font-weight="700" letter-spacing="1">DURUM</text>
  <text x="1544" y="220" fill="#94a3b8" font-size="11" font-weight="700" letter-spacing="1" text-anchor="end">İŞLEM</text>
  <line x1="320" y1="238" x2="1568" y2="238" stroke="#ffffff" stroke-opacity="0.10"/>

  <!-- rows -->
  <g font-size="14">
    <!-- row 1 -->
    <text x="344" y="278" fill="#ffffff" font-weight="600">Antalya turizm bölgesinde açıklama</text>
    <text x="344" y="298" fill="#64748b" font-size="12">Antalya</text>
    <text x="740" y="282" fill="#cbd5e1">15 Haz 22:58</text>
    <text x="920" y="282" fill="#cbd5e1">Orta</text>
    <rect x="1060" y="266" width="86" height="26" rx="13" fill="#a78bfa" fill-opacity="0.14" stroke="#c4b5fd" stroke-opacity="0.40"/>
    <text x="1103" y="283" fill="#ede9fe" font-size="12" font-weight="600" text-anchor="middle">Bölgesel</text>
    <rect x="1230" y="266" width="60" height="26" rx="13" fill="#34d399" fill-opacity="0.12" stroke="#6ee7b7" stroke-opacity="0.40"/>
    <text x="1260" y="283" fill="#d1fae5" font-size="12" font-weight="600" text-anchor="middle">Aktif</text>
    <rect x="1396" y="266" width="84" height="28" rx="9" fill="#ffffff" fill-opacity="0.045" stroke="#ffffff" stroke-opacity="0.10"/>
    <text x="1438" y="284" fill="#e2e8f0" font-size="12" font-weight="600" text-anchor="middle">Düzenle</text>
    <rect x="1488" y="266" width="60" height="28" rx="9" fill="#ef4444" fill-opacity="0.10" stroke="#fca5a5" stroke-opacity="0.30"/>
    <text x="1518" y="284" fill="#fecaca" font-size="12" font-weight="600" text-anchor="middle">Sil</text>
    <line x1="320" y1="320" x2="1568" y2="320" stroke="#ffffff" stroke-opacity="0.08"/>

    <!-- row 2 -->
    <text x="344" y="360" fill="#ffffff" font-weight="600">Ankara merkezli kritik toplantı trafiği</text>
    <text x="344" y="380" fill="#64748b" font-size="12">Ankara</text>
    <text x="740" y="364" fill="#cbd5e1">15 Haz 19:42</text>
    <text x="920" y="364" fill="#cbd5e1">Yüksek</text>
    <rect x="1060" y="348" width="70" height="26" rx="13" fill="#38bdf8" fill-opacity="0.14" stroke="#7dd3fc" stroke-opacity="0.40"/>
    <text x="1095" y="365" fill="#e0f2fe" font-size="12" font-weight="600" text-anchor="middle">Siyasi</text>
    <rect x="1230" y="348" width="60" height="26" rx="13" fill="#34d399" fill-opacity="0.12" stroke="#6ee7b7" stroke-opacity="0.40"/>
    <text x="1260" y="365" fill="#d1fae5" font-size="12" font-weight="600" text-anchor="middle">Aktif</text>
    <rect x="1396" y="348" width="84" height="28" rx="9" fill="#ffffff" fill-opacity="0.045" stroke="#ffffff" stroke-opacity="0.10"/>
    <text x="1438" y="366" fill="#e2e8f0" font-size="12" font-weight="600" text-anchor="middle">Düzenle</text>
    <rect x="1488" y="348" width="60" height="28" rx="9" fill="#ef4444" fill-opacity="0.10" stroke="#fca5a5" stroke-opacity="0.30"/>
    <text x="1518" y="366" fill="#fecaca" font-size="12" font-weight="600" text-anchor="middle">Sil</text>
    <line x1="320" y1="402" x2="1568" y2="402" stroke="#ffffff" stroke-opacity="0.08"/>

    <!-- row 3 -->
    <text x="344" y="442" fill="#ffffff" font-weight="600">İstanbul finans merkezinde piyasa hareketliliği</text>
    <text x="344" y="462" fill="#64748b" font-size="12">İstanbul</text>
    <text x="740" y="446" fill="#cbd5e1">14 Haz 16:10</text>
    <text x="920" y="446" fill="#cbd5e1">Kritik</text>
    <rect x="1060" y="430" width="72" height="26" rx="13" fill="#34d399" fill-opacity="0.14" stroke="#6ee7b7" stroke-opacity="0.40"/>
    <text x="1096" y="447" fill="#d1fae5" font-size="12" font-weight="600" text-anchor="middle">Finans</text>
    <rect x="1230" y="430" width="60" height="26" rx="13" fill="#34d399" fill-opacity="0.12" stroke="#6ee7b7" stroke-opacity="0.40"/>
    <text x="1260" y="447" fill="#d1fae5" font-size="12" font-weight="600" text-anchor="middle">Aktif</text>
    <rect x="1396" y="430" width="84" height="28" rx="9" fill="#ffffff" fill-opacity="0.045" stroke="#ffffff" stroke-opacity="0.10"/>
    <text x="1438" y="448" fill="#e2e8f0" font-size="12" font-weight="600" text-anchor="middle">Düzenle</text>
    <rect x="1488" y="430" width="60" height="28" rx="9" fill="#ef4444" fill-opacity="0.10" stroke="#fca5a5" stroke-opacity="0.30"/>
    <text x="1518" y="448" fill="#fecaca" font-size="12" font-weight="600" text-anchor="middle">Sil</text>
    <line x1="320" y1="484" x2="1568" y2="484" stroke="#ffffff" stroke-opacity="0.08"/>

    <!-- row 4 -->
    <text x="344" y="524" fill="#ffffff" font-weight="600">İzmir liman bölgesinde ulaşım düzenlemesi</text>
    <text x="344" y="544" fill="#64748b" font-size="12">İzmir</text>
    <text x="740" y="528" fill="#cbd5e1">14 Haz 09:25</text>
    <text x="920" y="528" fill="#cbd5e1">Orta</text>
    <rect x="1060" y="512" width="74" height="26" rx="13" fill="#22d3ee" fill-opacity="0.14" stroke="#67e8f9" stroke-opacity="0.40"/>
    <text x="1097" y="529" fill="#cffafe" font-size="12" font-weight="600" text-anchor="middle">Ulaşım</text>
    <rect x="1230" y="512" width="60" height="26" rx="13" fill="#64748b" fill-opacity="0.18" stroke="#94a3b8" stroke-opacity="0.40"/>
    <text x="1260" y="529" fill="#cbd5e1" font-size="12" font-weight="600" text-anchor="middle">Pasif</text>
    <rect x="1396" y="512" width="84" height="28" rx="9" fill="#ffffff" fill-opacity="0.045" stroke="#ffffff" stroke-opacity="0.10"/>
    <text x="1438" y="530" fill="#e2e8f0" font-size="12" font-weight="600" text-anchor="middle">Düzenle</text>
    <rect x="1488" y="512" width="60" height="28" rx="9" fill="#ef4444" fill-opacity="0.10" stroke="#fca5a5" stroke-opacity="0.30"/>
    <text x="1518" y="530" fill="#fecaca" font-size="12" font-weight="600" text-anchor="middle">Sil</text>
    <line x1="320" y1="566" x2="1568" y2="566" stroke="#ffffff" stroke-opacity="0.08"/>

    <!-- row 5 -->
    <text x="344" y="606" fill="#ffffff" font-weight="600">Bursa sanayi bölgesinde güvenlik uyarısı</text>
    <text x="344" y="626" fill="#64748b" font-size="12">Bursa</text>
    <text x="740" y="610" fill="#cbd5e1">13 Haz 21:03</text>
    <text x="920" y="610" fill="#cbd5e1">Yüksek</text>
    <rect x="1060" y="594" width="80" height="26" rx="13" fill="#f87171" fill-opacity="0.10" stroke="#fca5a5" stroke-opacity="0.35"/>
    <text x="1100" y="611" fill="#fecaca" font-size="12" font-weight="600" text-anchor="middle">Güvenlik</text>
    <rect x="1230" y="594" width="60" height="26" rx="13" fill="#34d399" fill-opacity="0.12" stroke="#6ee7b7" stroke-opacity="0.40"/>
    <text x="1260" y="611" fill="#d1fae5" font-size="12" font-weight="600" text-anchor="middle">Aktif</text>
    <rect x="1396" y="594" width="84" height="28" rx="9" fill="#ffffff" fill-opacity="0.045" stroke="#ffffff" stroke-opacity="0.10"/>
    <text x="1438" y="612" fill="#e2e8f0" font-size="12" font-weight="600" text-anchor="middle">Düzenle</text>
    <rect x="1488" y="594" width="60" height="28" rx="9" fill="#ef4444" fill-opacity="0.10" stroke="#fca5a5" stroke-opacity="0.30"/>
    <text x="1518" y="612" fill="#fecaca" font-size="12" font-weight="600" text-anchor="middle">Sil</text>
  </g>
</svg>
